<svg data-v-fde0c5aa="" xmlns="http://www.w3.org/2000/svg" viewBox="0 0 300 300" class="iconLeft"><!----><defs data-v-fde0c5aa=""><!----></defs><rect data-v-fde0c5aa="" fill="#000000" x="0" y="0" width="300px" height="300px" class="logo-background-square"></rect><defs data-v-fde0c5aa=""><!----></defs><g data-v-fde0c5aa="" id="f1ab678f-3d9e-4d87-ae91-134773e9350d" fill="#FFFFFF" transform="matrix(2.227603049596656,0,0,2.227603049596656,85.80145575507389,137.33607632579327)"><path d="M5.04 10.92L5.04 10.92Q3.74 10.92 2.82 10.19L2.82 10.19L2.82 10.19Q1.90 9.45 1.44 8.25L1.44 8.25L1.44 8.25Q0.98 7.06 0.98 5.68L0.98 5.68L0.98 5.68Q0.98 4.27 1.46 3.07L1.46 3.07L1.46 3.07Q1.93 1.88 2.82 1.16L2.82 1.16L2.82 1.16Q3.71 0.45 4.90 0.45L4.90 0.45L4.90 0.45Q5.42 0.45 5.86 0.62L5.86 0.62L5.86 0.62Q6.30 0.80 6.79 1.13L6.79 1.13L6.79 1.13Q7.11 1.34 7.27 1.34L7.27 1.34L7.27 1.34Q7.38 1.34 7.45 1.28L7.45 1.28L7.45 1.28Q7.52 1.22 7.57 1.08L7.57 1.08L7.83 0.56L8.29 0.56L8.29 4.86L7.84 4.86L7.84 4.86Q7.52 3.05 6.73 1.97L6.73 1.97L6.73 1.97Q5.94 0.90 4.90 0.90L4.90 0.90L4.90 0.90Q4.24 0.90 3.80 1.54L3.80 1.54L3.80 1.54Q3.36 2.18 3.36 3.58L3.36 3.58L3.36 7.78L3.36 7.78Q3.36 9.17 3.86 9.82L3.86 9.82L3.86 9.82Q4.35 10.47 5.04 10.47L5.04 10.47L5.04 10.47Q6.71 10.47 7.52 8.95L7.52 8.95L7.52 8.95Q7.92 8.20 8.06 6.82L8.06 6.82L8.57 6.82L8.57 6.82Q8.53 7.43 8.38 8.06L8.38 8.06L8.38 8.06Q8.23 8.68 7.99 9.14L7.99 9.14L7.99 9.14Q7.56 9.98 6.81 10.45L6.81 10.45L6.81 10.45Q6.06 10.92 5.04 10.92L5.04 10.92ZM9.80 10.67L9.80 10.33L10.33 10.33L10.33 10.33Q10.46 10.33 10.51 10.28L10.51 10.28L10.51 10.28Q10.56 10.23 10.56 10.11L10.56 10.11L10.56 4.59L10.56 4.59Q10.56 4.47 10.51 4.42L10.51 4.42L10.51 4.42Q10.46 4.37 10.33 4.37L10.33 4.37L9.80 4.37L9.80 4.03L12.18 4.03L12.18 5.42L12.25 5.43L12.25 5.43Q12.47 4.79 12.89 4.33L12.89 4.33L12.89 4.33Q13.30 3.86 13.80 3.86L13.80 3.86L13.80 3.86Q14.31 3.86 14.63 4.23L14.63 4.23L14.63 4.23Q14.95 4.59 14.95 5.15L14.95 5.15L14.95 5.15Q14.95 5.67 14.66 6.04L14.66 6.04L14.66 6.04Q14.36 6.41 13.93 6.41L13.93 6.41L13.93 6.41Q13.55 6.41 13.29 6.18L13.29 6.18L13.29 6.18Q13.02 5.95 13.02 5.61L13.02 5.61L13.02 5.61Q13.02 5.28 13.36 4.89L13.36 4.89L13.36 4.89Q13.55 4.66 13.55 4.56L13.55 4.56L13.55 4.56Q13.55 4.42 13.40 4.42L13.40 4.42L13.40 4.42Q13.12 4.42 12.83 4.83L12.83 4.83L12.83 4.83Q12.54 5.24 12.36 5.89L12.36 5.89L12.36 5.89Q12.18 6.55 12.18 7.29L12.18 7.29L12.18 10.11L12.18 10.11Q12.18 10.23 12.23 10.28L12.23 10.28L12.23 10.28Q12.28 10.33 12.40 10.33L12.40 10.33L12.85 10.33L12.85 10.67L9.80 10.67ZM18.84 10.84L18.84 10.84Q18.09 10.84 17.43 10.38L17.43 10.38L17.43 10.38Q16.77 9.93 16.38 9.13L16.38 9.13L16.38 9.13Q15.99 8.33 15.99 7.35L15.99 7.35L15.99 7.35Q15.99 6.37 16.38 5.57L16.38 5.57L16.38 5.57Q16.77 4.77 17.43 4.32L17.43 4.32L17.43 4.32Q18.09 3.86 18.84 3.86L18.84 3.86L18.84 3.86Q19.60 3.86 20.26 4.32L20.26 4.32L20.26 4.32Q20.92 4.77 21.31 5.57L21.31 5.57L21.31 5.57Q21.70 6.37 21.70 7.35L21.70 7.35L21.70 7.35Q21.70 8.33 21.31 9.13L21.31 9.13L21.31 9.13Q20.92 9.93 20.26 10.38L20.26 10.38L20.26 10.38Q19.60 10.84 18.84 10.84L18.84 10.84ZM18.84 10.50L18.84 10.50Q19.45 10.50 19.68 9.76L19.68 9.76L19.68 9.76Q19.91 9.02 19.91 7.35L19.91 7.35L19.91 7.35Q19.91 5.68 19.68 4.94L19.68 4.94L19.68 4.94Q19.45 4.20 18.84 4.20L18.84 4.20L18.84 4.20Q18.24 4.20 18.01 4.94L18.01 4.94L18.01 4.94Q17.78 5.68 17.78 7.35L17.78 7.35L17.78 7.35Q17.78 9.02 18.01 9.76L18.01 9.76L18.01 9.76Q18.24 10.50 18.84 10.50L18.84 10.50ZM25.59 10.84L23.55 5.18L23.55 5.18Q23.39 4.75 23.20 4.56L23.20 4.56L23.20 4.56Q23.00 4.37 22.64 4.37L22.64 4.37L22.40 4.37L22.40 4.03L25.63 4.03L25.63 4.37L25.37 4.37L25.37 4.37Q25.24 4.37 25.16 4.47L25.16 4.47L25.16 4.47Q25.09 4.56 25.09 4.73L25.09 4.73L25.09 4.73Q25.09 4.87 25.17 5.12L25.17 5.12L26.43 8.64L27.45 5.78L27.24 5.18L27.24 5.18Q27.09 4.75 26.91 4.56L26.91 4.56L26.91 4.56Q26.74 4.37 26.45 4.37L26.45 4.37L26.26 4.37L26.26 4.03L29.53 4.03L29.53 4.37L29.12 4.37L29.12 4.37Q28.99 4.37 28.89 4.47L28.89 4.47L28.89 4.47Q28.78 4.56 28.78 4.73L28.78 4.73L28.78 4.73Q28.78 4.87 28.87 5.12L28.87 5.12L29.99 8.46L31.05 5.50L31.05 5.50Q31.15 5.19 31.15 4.87L31.15 4.87L31.15 4.87Q31.15 4.68 31.01 4.52L31.01 4.52L31.01 4.52Q30.87 4.37 30.66 4.37L30.66 4.37L30.30 4.37L30.30 4.03L32.68 4.03L32.68 4.37L32.37 4.37L32.37 4.37Q31.89 4.37 31.58 5.24L31.58 5.24L29.57 10.84L29.12 10.84L27.65 6.37L26.04 10.84L25.59 10.84ZM35.42 10.84L35.42 10.84Q34.69 10.84 34.12 10.34L34.12 10.34L34.12 10.34Q33.54 9.84 33.22 9.04L33.22 9.04L33.22 9.04Q32.90 8.23 32.90 7.35L32.90 7.35L32.90 7.35Q32.90 6.45 33.21 5.66L33.21 5.66L33.21 5.66Q33.52 4.86 34.08 4.36L34.08 4.36L34.08 4.36Q34.64 3.86 35.36 3.86L35.36 3.86L35.36 3.86Q35.81 3.86 36.16 4.13L36.16 4.13L36.16 4.13Q36.51 4.40 36.74 4.86L36.74 4.86L36.82 4.83L36.82 1.26L36.82 1.26Q36.82 1.13 36.77 1.09L36.77 1.09L36.77 1.09Q36.72 1.04 36.60 1.04L36.60 1.04L35.81 1.04L35.81 0.70L38.44 0.70L38.44 10.11L38.44 10.11Q38.44 10.23 38.49 10.28L38.49 10.28L38.49 10.28Q38.54 10.33 38.67 10.33L38.67 10.33L39.45 10.33L39.45 10.67L36.82 10.67L36.82 9.86L36.74 9.86L36.74 9.86Q36.55 10.25 36.21 10.54L36.21 10.54L36.21 10.54Q35.87 10.84 35.42 10.84L35.42 10.84ZM35.62 10.39L35.62 10.39Q35.94 10.39 36.21 9.99L36.21 9.99L36.21 9.99Q36.48 9.59 36.65 8.90L36.65 8.90L36.65 8.90Q36.82 8.22 36.82 7.39L36.82 7.39L36.82 7.39Q36.82 6.38 36.62 5.68L36.62 5.68L36.62 5.68Q36.43 4.98 36.15 4.65L36.15 4.65L36.15 4.65Q35.87 4.31 35.62 4.31L35.62 4.31L35.62 4.31Q34.69 4.31 34.69 7.35L34.69 7.35L34.69 7.35Q34.69 10.39 35.62 10.39L35.62 10.39ZM44.62 10.92L44.62 10.92Q44.00 10.92 43.51 10.75L43.51 10.75L43.51 10.75Q43.02 10.57 42.70 10.30L42.70 10.30L42.70 10.30Q42.38 10.07 42.24 9.98L42.24 9.98L42.24 9.98Q42.10 9.88 41.97 9.88L41.97 9.88L41.97 9.88Q41.68 9.88 41.61 10.36L41.61 10.36L41.54 10.81L41.10 10.81L41.02 6.38L41.47 6.38L41.47 6.38Q41.66 7.45 42.13 8.39L42.13 8.39L42.13 8.39Q42.60 9.32 43.27 9.90L43.27 9.90L43.27 9.90Q43.93 10.47 44.70 10.47L44.70 10.47L44.70 10.47Q45.81 10.47 46.21 9.98L46.21 9.98L46.21 9.98Q46.62 9.49 46.62 8.88L46.62 8.88L46.62 8.88Q46.62 8.51 46.36 8.23L46.36 8.23L46.36 8.23Q46.10 7.94 45.61 7.62L45.61 7.62L42.62 5.68L42.62 5.68Q41.96 5.26 41.50 4.63L41.50 4.63L41.50 4.63Q41.05 4.00 41.05 3.14L41.05 3.14L41.05 3.14Q41.05 1.78 41.84 1.11L41.84 1.11L41.84 1.11Q42.63 0.45 43.79 0.45L43.79 0.45L43.79 0.45Q44.79 0.45 45.78 1.15L45.78 1.15L45.78 1.15Q46.10 1.40 46.28 1.40L46.28 1.40L46.28 1.40Q46.54 1.40 46.59 1.08L46.59 1.08L46.68 0.70L47.12 0.70L47.26 4.34L46.82 4.34L46.82 4.34Q46.55 3.37 46.07 2.59L46.07 2.59L46.07 2.59Q45.60 1.81 44.98 1.35L44.98 1.35L44.98 1.35Q44.35 0.90 43.68 0.90L43.68 0.90L43.68 0.90Q42.94 0.90 42.58 1.19L42.58 1.19L42.58 1.19Q42.22 1.48 42.22 2.07L42.22 2.07L42.22 2.07Q42.22 2.87 43.47 3.68L43.47 3.68L46.48 5.63L46.48 5.63Q47.05 6.01 47.40 6.66L47.40 6.66L47.40 6.66Q47.74 7.32 47.74 8.04L47.74 8.04L47.74 8.04Q47.74 8.76 47.39 9.42L47.39 9.42L47.39 9.42Q47.04 10.08 46.34 10.50L46.34 10.50L46.34 10.50Q45.64 10.92 44.62 10.92L44.62 10.92ZM51.97 10.84L51.97 10.84Q51.21 10.84 50.55 10.38L50.55 10.38L50.55 10.38Q49.90 9.93 49.50 9.13L49.50 9.13L49.50 9.13Q49.11 8.33 49.11 7.35L49.11 7.35L49.11 7.35Q49.11 6.37 49.50 5.57L49.50 5.57L49.50 5.57Q49.90 4.77 50.55 4.32L50.55 4.32L50.55 4.32Q51.21 3.86 51.97 3.86L51.97 3.86L51.97 3.86Q52.72 3.86 53.38 4.32L53.38 4.32L53.38 4.32Q54.04 4.77 54.43 5.57L54.43 5.57L54.43 5.57Q54.82 6.37 54.82 7.35L54.82 7.35L54.82 7.35Q54.82 8.33 54.43 9.13L54.43 9.13L54.43 9.13Q54.04 9.93 53.38 10.38L53.38 10.38L53.38 10.38Q52.72 10.84 51.97 10.84L51.97 10.84ZM51.97 10.50L51.97 10.50Q52.57 10.50 52.80 9.76L52.80 9.76L52.80 9.76Q53.03 9.02 53.03 7.35L53.03 7.35L53.03 7.35Q53.03 5.68 52.80 4.94L52.80 4.94L52.80 4.94Q52.57 4.20 51.97 4.20L51.97 4.20L51.97 4.20Q51.37 4.20 51.14 4.94L51.14 4.94L51.14 4.94Q50.90 5.68 50.90 7.35L50.90 7.35L50.90 7.35Q50.90 9.02 51.14 9.76L51.14 9.76L51.14 9.76Q51.37 10.50 51.97 10.50L51.97 10.50ZM58.56 10.84L58.56 10.84Q58.21 10.84 57.96 10.76L57.96 10.76L57.96 10.76Q57.71 10.68 57.48 10.53L57.48 10.53L57.48 10.53Q57.13 10.28 56.93 9.83L56.93 9.83L56.93 9.83Q56.73 9.38 56.73 8.90L56.73 8.90L56.73 4.59L56.73 4.59Q56.73 4.47 56.68 4.42L56.68 4.42L56.68 4.42Q56.63 4.37 56.50 4.37L56.50 4.37L55.83 4.37L55.83 4.03L58.35 4.03L58.35 9.31L58.35 9.31Q58.35 10.39 59.00 10.39L59.00 10.39L59.00 10.39Q59.29 10.39 59.61 10.00L59.61 10.00L59.61 10.00Q59.93 9.60 60.15 8.96L60.15 8.96L60.15 8.96Q60.37 8.32 60.37 7.59L60.37 7.59L60.37 4.59L60.37 4.59Q60.37 4.47 60.32 4.42L60.32 4.42L60.32 4.42Q60.27 4.37 60.14 4.37L60.14 4.37L59.47 4.37L59.47 4.03L61.99 4.03L61.99 10.11L61.99 10.11Q61.99 10.23 62.04 10.28L62.04 10.28L62.04 10.28Q62.09 10.33 62.22 10.33L62.22 10.33L62.75 10.33L62.75 10.67L60.37 10.67L60.37 9.42L60.30 9.41L60.30 9.41Q60.02 10.07 59.58 10.45L59.58 10.45L59.58 10.45Q59.14 10.84 58.56 10.84L58.56 10.84ZM63.76 10.67L63.76 10.33L64.29 10.33L64.29 10.33Q64.41 10.33 64.46 10.28L64.46 10.28L64.46 10.28Q64.51 10.23 64.51 10.11L64.51 10.11L64.51 4.59L64.51 4.59Q64.51 4.47 64.46 4.42L64.46 4.42L64.46 4.42Q64.41 4.37 64.29 4.37L64.29 4.37L63.76 4.37L63.76 4.03L66.14 4.03L66.14 5.28L66.21 5.29L66.21 5.29Q66.49 4.63 66.93 4.25L66.93 4.25L66.93 4.25Q67.37 3.86 67.94 3.86L67.94 3.86L67.94 3.86Q68.29 3.86 68.54 3.94L68.54 3.94L68.54 3.94Q68.80 4.02 69.02 4.17L69.02 4.17L69.02 4.17Q69.37 4.42 69.57 4.87L69.57 4.87L69.57 4.87Q69.78 5.32 69.78 5.80L69.78 5.80L69.78 10.11L69.78 10.11Q69.78 10.23 69.83 10.28L69.83 10.28L69.83 10.28Q69.87 10.33 70 10.33L70 10.33L70.53 10.33L70.53 10.67L67.48 10.67L67.48 10.33L67.93 10.33L67.93 10.33Q68.05 10.33 68.10 10.28L68.10 10.28L68.10 10.28Q68.15 10.23 68.15 10.11L68.15 10.11L68.15 5.39L68.15 5.39Q68.15 4.31 67.51 4.31L67.51 4.31L67.51 4.31Q67.21 4.31 66.89 4.70L66.89 4.70L66.89 4.70Q66.57 5.10 66.35 5.74L66.35 5.74L66.35 5.74Q66.14 6.38 66.14 7.11L66.14 7.11L66.14 10.11L66.14 10.11Q66.14 10.23 66.19 10.28L66.19 10.28L66.19 10.28Q66.23 10.33 66.36 10.33L66.36 10.33L66.81 10.33L66.81 10.67L63.76 10.67ZM74.17 10.84L74.17 10.84Q73.44 10.84 72.87 10.34L72.87 10.34L72.87 10.34Q72.30 9.84 71.97 9.04L71.97 9.04L71.97 9.04Q71.65 8.23 71.65 7.35L71.65 7.35L71.65 7.35Q71.65 6.45 71.96 5.66L71.96 5.66L71.96 5.66Q72.27 4.86 72.83 4.36L72.83 4.36L72.83 4.36Q73.39 3.86 74.12 3.86L74.12 3.86L74.12 3.86Q74.56 3.86 74.91 4.13L74.91 4.13L74.91 4.13Q75.26 4.40 75.49 4.86L75.49 4.86L75.57 4.83L75.57 1.26L75.57 1.26Q75.57 1.13 75.52 1.09L75.52 1.09L75.52 1.09Q75.47 1.04 75.35 1.04L75.35 1.04L74.56 1.04L74.56 0.70L77.20 0.70L77.20 10.11L77.20 10.11Q77.20 10.23 77.25 10.28L77.25 10.28L77.25 10.28Q77.29 10.33 77.42 10.33L77.42 10.33L78.20 10.33L78.20 10.67L75.57 10.67L75.57 9.86L75.49 9.86L75.49 9.86Q75.31 10.25 74.96 10.54L74.96 10.54L74.96 10.54Q74.62 10.84 74.17 10.84L74.17 10.84ZM74.37 10.39L74.37 10.39Q74.69 10.39 74.96 9.99L74.96 9.99L74.96 9.99Q75.24 9.59 75.40 8.90L75.40 8.90L75.40 8.90Q75.57 8.22 75.57 7.39L75.57 7.39L75.57 7.39Q75.57 6.38 75.38 5.68L75.38 5.68L75.38 5.68Q75.18 4.98 74.90 4.65L74.90 4.65L74.90 4.65Q74.62 4.31 74.37 4.31L74.37 4.31L74.37 4.31Q73.44 4.31 73.44 7.35L73.44 7.35L73.44 7.35Q73.44 10.39 74.37 10.39L74.37 10.39Z"></path></g><defs data-v-fde0c5aa=""><!----></defs><g data-v-fde0c5aa="" id="db0df854-4aa9-43af-b730-e54002be64ca" stroke="none" fill="#FFFFFF" transform="matrix(1.0932658370677113,0,0,1.0932658370677113,40,132.5077466069166)"><path d="M32 0H0v32h32V0zm-8.677 20.802l-2.52 2.52L16 28.125l-2.52-2.52 4.802-4.802L16 18.52l-4.802 4.802-2.52-2.52L13.48 16l-2.282-2.282-4.803 4.802L3.875 16l4.802-4.802 2.52-2.52L16 3.875l2.52 2.52-4.802 4.802L16 13.48l4.802-4.802 2.52 2.52L18.52 16l2.282 2.282 4.802-4.802 2.52 2.52-4.801 4.802z"></path></g><!----></svg>